<svg width="42" height="41" viewBox="0 0 42 41" fill="none" xmlns="http://www.w3.org/2000/svg">
<path d="M19.6875 38.4375H24.7625C29.0624 38.4375 32.5889 35.1765 32.8118 31.1592C32.8249 30.936 32.6545 30.75 32.4185 30.75L27.817 30.7624C25.5805 30.7774 23.5599 31.8679 22.3125 33.5288L22.3125 28.1875L24.0712 27.3547C24.4256 27.1881 24.4256 26.6884 24.0712 26.5219L22.3125 25.6634V23.3572H19.6875V31.98L17.9156 32.8384C17.5612 33.005 17.5612 33.5047 17.9156 33.6712L19.6875 34.5297L19.6875 38.4375Z" fill="#86D72F"/>
<path d="M19.4119 15.5416H20.5406C20.5931 15.5416 20.6456 15.5287 20.6981 15.5159C20.79 15.5544 20.8819 15.5928 20.9869 15.5928H22.1287C24.9244 15.5928 27.195 13.3763 27.195 10.6472V3.25438C27.195 2.89563 26.9062 2.61375 26.5387 2.61375H25.3969C23.3362 2.61375 21.5775 3.81812 20.7769 5.535C20.0025 3.77969 18.2306 2.5625 16.1569 2.5625H15.0281C14.6475 2.5625 14.3456 2.85719 14.3456 3.21594V10.5959C14.3456 13.325 16.6162 15.5416 19.4119 15.5416Z" fill="#CA0B4A"/>
<path d="M14.4375 5.76562C14.4375 5.76562 18.375 5.76562 21 9.60938C23.625 5.76562 27.5625 5.76562 27.5625 5.76562H29.0228C29.9186 5.76562 30.4777 6.59377 30.0793 7.37708C29.5103 8.49603 28.875 9.88076 28.875 11.5312C28.875 12.7411 29.1676 13.5225 29.4765 14.3475C29.8218 15.2699 30.1875 16.2467 30.1875 17.9375C30.1875 21.1406 28.875 24.3438 21 24.3438C13.125 24.3438 11.8125 21.1406 11.8125 17.9375C11.8125 16.6168 12.1406 15.6756 12.4688 14.7344C12.7969 13.7932 13.125 12.8519 13.125 11.5312C13.125 9.99199 12.6514 8.68389 12.131 7.60694C11.7147 6.74552 12.3042 5.76562 13.2799 5.76562H14.4375Z" fill="#F8312F"/>
</svg>
