<svg width="42" height="41" viewBox="0 0 42 41" fill="none" xmlns="http://www.w3.org/2000/svg">
<path d="M27.2526 38.0186C27.6846 38.2351 28.2104 38.0603 28.4268 37.6283C28.6433 37.1962 28.4685 36.6705 28.0365 36.454L27.2526 38.0186ZM28.0365 36.454C24.4031 34.6337 22.9131 32.2069 22.2877 29.5384C21.6365 26.7595 21.916 23.7698 21.916 20.6602H20.166C20.166 23.5403 19.8713 26.8969 20.5839 29.9377C21.3223 33.0888 23.134 35.9552 27.2526 38.0186L28.0365 36.454Z" fill="#008463"/>
<path d="M21.0323 11.8343C20.9086 8.65556 20.3588 5.34276 18.2314 3.60349C15.275 1.18638 10.7871 3.78368 11.4229 7.34714C7.30082 6.92673 4.52291 12.3572 8.67481 14.9145C10.6488 16.1303 12.6699 16.5116 15.039 16.6154C12.6418 16.7455 10.6018 17.1585 8.60984 18.3854C4.45794 20.9427 7.23585 26.3732 11.3579 25.9528C10.7221 29.5163 15.0898 31.9661 18.1665 29.6965C20.0655 28.2956 20.752 25.8806 20.9721 23.335C21.2194 25.8806 21.9341 28.2956 23.8331 29.6965C26.9098 31.9661 31.2775 29.5163 30.6417 25.9528C34.7638 26.3732 37.5417 20.9427 33.3898 18.3854C31.4134 17.1681 29.355 16.752 26.9526 16.6185C29.3532 16.5193 31.3955 16.1428 33.3898 14.9145C37.5417 12.3572 34.7638 6.92673 30.6417 7.34714C31.2775 3.78368 26.7896 1.18638 23.8331 3.60349C21.7058 5.34276 21.1559 8.65556 21.0323 11.8343Z" fill="#00D26A"/>
</svg>
