<svg width="42" height="41" viewBox="0 0 42 41" fill="none" xmlns="http://www.w3.org/2000/svg">
<path d="M22.4523 25.305H19.8273V35.8471C18.8371 33.4843 16.468 31.801 13.6979 31.801H10.981C10.771 31.801 10.6135 31.9676 10.6135 32.1598V32.6979C10.6135 35.7729 13.1729 38.2713 16.2048 38.297L19.9848 38.3098C20.0295 38.3098 20.0727 38.3006 20.1123 38.2841H22.4523V38.2757C22.4995 38.2975 22.5527 38.3098 22.6097 38.3098H25.3266C28.8704 38.3098 31.7579 35.5551 31.9416 32.147C31.9547 31.9548 31.7972 31.801 31.6135 31.801L27.8335 31.8138C25.315 31.8351 23.1226 33.5626 22.4523 35.9095V25.305Z" fill="#44911B"/>
<path d="M31.2985 15.0936C33.8054 15.7726 35.5379 17.1436 35.3673 18.5145C35.1967 19.8854 33.1885 20.7951 30.6029 20.872C32.3354 22.7682 33.031 24.8439 32.1123 25.9073C31.2067 26.9579 29.0148 26.6504 26.8098 25.3307C27.2035 27.842 26.6129 29.9561 25.261 30.3532C23.9092 30.7504 22.2423 29.3282 21.1267 27.0476C20.0504 29.3667 18.3967 30.8273 17.0316 30.4429C15.6798 30.0586 15.0629 27.9701 15.4042 25.4717C13.2123 26.8426 11.0073 27.1886 10.0754 26.1379C9.14353 25.0873 9.79978 23.0245 11.4798 21.1026C8.8679 21.077 6.83353 20.1929 6.63665 18.822C6.43978 17.4511 8.14603 16.0673 10.6267 15.3498C8.4479 13.9532 7.2404 12.1211 7.83103 10.8782C8.4479 9.59699 10.7317 9.34074 13.2779 10.1351C12.1885 7.7648 12.1754 5.5098 13.396 4.76668C14.5641 4.04918 16.5198 4.95887 18.1735 6.81668C18.6198 4.39512 19.8142 2.65262 21.2054 2.69105C22.4916 2.70387 23.5679 4.24137 24.001 6.41949C25.5629 4.7923 27.3217 4.03637 28.4242 4.6898C29.6317 5.39449 29.671 7.5598 28.6735 9.89168C31.1541 9.12293 33.3723 9.35355 33.9892 10.5964C34.606 11.8264 33.4379 13.6714 31.2985 15.0936Z" fill="#FCD53F"/>
<path d="M21 24.3438C25.2485 24.3438 28.6926 20.9817 28.6926 16.8344C28.6926 12.6871 25.2485 9.32507 21 9.32507C16.7516 9.32507 13.3075 12.6871 13.3075 16.8344C13.3075 20.9817 16.7516 24.3438 21 24.3438Z" fill="#8C5543"/>
<path d="M27.7178 13.173L26.6676 14.1982L28.1334 15.6291L28.5211 15.2506C28.6334 15.7612 28.6925 16.2911 28.6925 16.8344C28.6925 17.1997 28.6658 17.559 28.6141 17.9104L28.1334 17.4411L26.6708 18.8688L27.9307 20.0967C27.2336 21.5053 26.0992 22.6691 24.6995 23.4199L23.3518 22.1088L21.9 23.526L22.5761 24.186C22.0674 24.2894 21.5402 24.3438 21 24.3438C20.4434 24.3438 19.9006 24.2861 19.3776 24.1764L20.0439 23.526L18.5781 22.0951L17.2493 23.3922C16.2534 22.8482 15.3941 22.0943 14.7343 21.1918L16.1908 22.6136L17.65 21.1891L16.1908 19.7646L14.732 21.1887C14.4703 20.8303 14.24 20.4486 14.0451 20.0472L15.2627 18.8587L13.8037 17.4344L13.3773 17.8506C13.3313 17.5183 13.3075 17.1791 13.3075 16.8344C13.3075 16.3071 13.3632 15.7925 13.4691 15.2958L13.8037 15.6225L15.2417 14.2187L14.2413 13.2454C14.456 12.861 14.7041 12.4969 14.9817 12.1569L16.1698 13.3127L17.6399 11.8777L16.4861 10.7532C16.8502 10.4951 17.2385 10.2675 17.6469 10.0741L18.5679 10.9717L20.0371 9.53753L19.8978 9.40155C20.2577 9.35113 20.6257 9.32504 21 9.32504C21.3531 9.32504 21.7006 9.34826 22.041 9.39322L21.8932 9.53753L23.3522 10.9618L24.2912 10.0451C24.7023 10.2353 25.0934 10.4601 25.4605 10.7156L24.2803 11.8677L25.7395 13.2922L26.9666 12.0943C27.2476 12.4309 27.4992 12.7917 27.7178 13.173ZM27.203 21.198L25.7428 19.7748L24.2799 21.2028L25.7414 22.6247L27.203 21.198ZM14.7318 16.5284L16.1908 17.9527L17.6328 16.5449L16.1714 15.1231L14.7318 16.5284ZM17.0995 14.2171L18.5609 15.639L20.0288 14.206L18.5687 12.7829L17.0995 14.2171ZM19.4968 11.8769L20.9569 13.3L22.4241 11.8677L20.9651 10.4435L19.4968 11.8769ZM21.8857 14.2052L23.3462 15.6286L24.8114 14.1982L23.3522 12.7737L21.8857 14.2052ZM19.4906 16.5434L20.9523 17.9655L22.4181 16.5346L20.9577 15.1112L19.4906 16.5434ZM17.1188 18.8587L18.5781 20.2832L20.0242 18.8715L18.5625 17.4494L17.1188 18.8587ZM27.2053 16.5351L25.7395 15.1042L24.275 16.5338L25.742 17.9636L27.2053 16.5351ZM24.8139 18.8696L23.3469 17.4398L21.8819 18.8699L23.3502 20.2984L24.8139 18.8696ZM22.4222 21.2044L20.9539 19.7759L19.5061 21.1891L20.972 22.62L22.4222 21.2044Z" fill="#6D4534"/>
</svg>
