<svg width="42" height="41" viewBox="0 0 42 41" fill="none" xmlns="http://www.w3.org/2000/svg">
<path fill-rule="evenodd" clip-rule="evenodd" d="M21.2498 19.0856L18.6557 20.6401L26.4684 33.0639L25.0381 33.8599L26.6656 36.6402C27.5844 38.1777 29.5794 38.7031 31.1544 37.8318C32.7294 36.9606 33.2806 35.0002 32.375 33.4627L30.7475 30.6824L29.1141 31.5915L21.2498 19.0856Z" fill="#7FA233"/>
<path fill-rule="evenodd" clip-rule="evenodd" d="M21.3316 7.85585C21.7109 10.1846 20.0409 12.2802 17.6017 12.5365C16.9918 12.6005 16.4206 12.1805 16.3258 11.5983C15.9465 9.26957 17.6164 7.17399 20.0557 6.91771C20.6655 6.85364 21.2367 7.27366 21.3316 7.85585ZM8.77585 15.0128C10.6673 16.4793 13.3575 16.0889 14.7845 14.1408C15.1413 13.6538 15.0472 12.9617 14.5743 12.5951C12.6828 11.1285 9.99262 11.5189 8.56561 13.467C8.20885 13.9541 8.30298 14.6461 8.77585 15.0128ZM24.5623 23.2957C25.9893 21.3476 28.6795 20.9572 30.5709 22.4237C31.0438 22.7904 31.138 23.4824 30.7812 23.9695C29.3542 25.9176 26.664 26.308 24.7725 24.8414C24.2996 24.4748 24.2055 23.7827 24.5623 23.2957ZM17.3154 29.981C16.9361 27.6523 18.606 25.5567 21.0453 25.3004C21.6551 25.2364 22.2264 25.6564 22.3212 26.2386C22.7005 28.5673 21.0306 30.6629 18.5913 30.9192C17.9815 30.9832 17.4102 30.5632 17.3154 29.981ZM22.4896 18.1145C24.8296 18.7684 27.1854 17.4252 27.7515 15.1143C27.893 14.5366 27.5335 13.9357 26.9485 13.7722C24.6085 13.1183 22.2527 14.4615 21.6866 16.7724C21.5451 17.3501 21.9046 17.951 22.4896 18.1145ZM12.0004 24.0952C14.3404 24.7491 16.6963 23.4059 17.2624 21.095C17.4039 20.5173 17.0444 19.9164 16.4594 19.7529C14.1194 19.099 11.7635 20.4422 11.1974 22.7531C11.0559 23.3308 11.4154 23.9317 12.0004 24.0952Z" fill="#54259D"/>
<path fill-rule="evenodd" clip-rule="evenodd" d="M24.077 10.0937C24.409 9.67717 24.0348 9.32168 23.5502 9.27438C22.8735 9.20879 21.7518 9.2748 21.0483 9.429C20.4689 9.556 19.998 9.73577 19.6208 9.8798L19.6208 9.8798C19.1136 10.0734 18.7756 10.2025 18.5706 10.0518C18.3528 9.89158 18.3915 9.417 18.4409 8.81326C18.4724 8.42675 18.5083 7.9873 18.484 7.54352C18.4759 7.39668 18.4714 7.2536 18.467 7.11334C18.4465 6.45908 18.4279 5.86595 18.058 5.23754C17.7722 4.75207 17.4228 4.54037 17.0909 4.95693L14.858 7.75899C14.3983 8.33579 14.1108 8.9863 13.9879 9.65215C13.333 9.42907 12.6108 9.35374 11.8697 9.46129L8.27258 9.98329C7.73782 10.0609 7.75508 10.4619 8.04784 10.9434C8.42681 11.5667 8.94689 11.8739 9.52057 12.2128L9.52057 12.2128L9.52059 12.2128C9.64357 12.2854 9.76902 12.3595 9.89607 12.4385C10.2801 12.6772 10.6898 12.8626 11.0502 13.0256L11.0502 13.0256C11.6131 13.2803 12.0556 13.4805 12.0915 13.7445C12.1253 13.9927 11.8441 14.2167 11.4221 14.5528C11.1083 14.8028 10.7166 15.1149 10.3186 15.5451C9.83543 16.0675 9.22546 16.9889 8.95154 17.5965C8.75569 18.0317 8.88903 18.5245 9.42379 18.4469L12.4511 18.0076L9.55601 19.6583C9.08771 19.9253 9.26127 20.2872 9.72338 20.622C10.3215 21.0555 10.9272 21.1471 11.5954 21.2482C11.7386 21.2699 11.8847 21.292 12.0342 21.318C12.4861 21.3965 12.9411 21.4167 13.3412 21.4345C13.9662 21.4622 14.4575 21.484 14.5947 21.7132C14.7236 21.9288 14.5493 22.2373 14.2877 22.7003C14.0932 23.0448 13.8503 23.4746 13.6481 24.0153C13.4025 24.6718 13.1953 25.7409 13.1784 26.399C13.1666 26.8703 13.4845 27.2739 13.9528 27.0069L16.1579 25.7496L14.5712 27.7407C14.2393 28.1572 14.6135 28.5127 15.0981 28.56C15.7748 28.6256 16.8965 28.5596 17.6 28.4054C18.1794 28.2784 18.6502 28.0986 19.0275 27.9546C19.5347 27.761 19.8727 27.6319 20.0776 27.7826C20.2955 27.9428 20.2567 28.4174 20.2074 29.0211C20.1758 29.4077 20.1399 29.8471 20.1643 30.2909C20.1723 30.4377 20.1768 30.5807 20.1812 30.721L20.1812 30.721L20.1812 30.7211C20.2018 31.3753 20.2204 31.9685 20.5903 32.5969C20.8761 33.0823 21.2254 33.294 21.5574 32.8775L23.7903 30.0754C24.3686 29.3497 24.6745 28.5073 24.7227 27.6645L24.8691 27.581C25.6448 27.9541 26.5467 28.1079 27.4784 27.9727L31.0755 27.4507C31.6103 27.3731 31.593 26.9721 31.3002 26.4906C30.9213 25.8673 30.4012 25.5601 29.8275 25.2212L29.8275 25.2212C29.7045 25.1486 29.5791 25.0745 29.452 24.9955C29.068 24.7568 28.6583 24.5714 28.2979 24.4084C27.735 24.1537 27.2925 23.9535 27.2566 23.6896C27.2228 23.4413 27.504 23.2173 27.9259 22.8812C28.2398 22.6312 28.6315 22.3191 29.0295 21.8889C29.5127 21.3665 30.1226 20.4451 30.3965 19.8375C30.5924 19.4023 30.4591 18.9095 29.9243 18.9871L27.3676 19.3581L29.3905 18.2047C29.8588 17.9377 29.6548 17.4692 29.2285 17.2476C28.633 16.9387 27.5773 16.5897 26.8709 16.476C26.2892 16.3823 25.7863 16.3776 25.3834 16.3738C24.8417 16.3688 24.4808 16.3654 24.3518 16.1498C24.2147 15.9206 24.4366 15.4922 24.7189 14.9471C24.8997 14.5982 25.1052 14.2015 25.2571 13.7786C25.3073 13.6387 25.3594 13.5036 25.4104 13.3712L25.4104 13.3712C25.6484 12.7534 25.8642 12.1934 25.7714 11.4719C25.6996 10.9144 25.462 10.5891 24.9937 10.8561L22.2003 12.4488L24.077 10.0937ZM18.5127 18.9839L19.9919 18.1405C19.382 16.8319 19.5205 15.3381 20.2693 14.1499C19.1946 14.667 17.9411 14.7537 16.8086 14.3687C16.5891 15.5538 15.8614 16.6024 14.8259 17.2591C16.2504 17.2093 17.6467 17.8252 18.5127 18.9839ZM23.9422 20.6115L23.9393 20.6067L23.9476 20.6067L23.9422 20.6115Z" fill="#802AFC"/>
<path fill-rule="evenodd" clip-rule="evenodd" d="M10.371 2.80973C11.5772 3.13638 12.5777 3.95395 13.0866 4.98242C13.7523 4.20009 14.7312 3.63589 15.8116 3.454C16.3364 3.36566 16.4399 3.44072 16.495 3.9496C16.6206 5.10888 16.2369 6.27687 15.4956 7.13291C16.7031 7.35289 17.8085 8.12489 18.4218 9.22708C18.6711 9.6751 18.6298 9.79554 18.1491 10.0223C16.9281 10.5984 15.4968 10.6101 14.3593 10.083C14.2708 11.3092 13.5573 12.5206 12.4433 13.2758C12.0048 13.5731 11.877 13.5491 11.5998 13.117C10.9489 12.1027 10.7864 10.8553 11.1176 9.75729C9.89284 10.1067 8.49018 9.88514 7.40724 9.1322C6.98026 8.83534 6.96413 8.71047 7.30077 8.30767C8.06263 7.39606 9.17648 6.81567 10.3095 6.69862C9.58341 5.75494 9.31063 4.4628 9.62187 3.23684C9.74885 2.73666 9.8623 2.67198 10.371 2.80973ZM23.7332 22.7782C23.2244 21.7493 22.2237 20.9313 21.0171 20.6046C20.5084 20.4668 20.395 20.5315 20.268 21.0317C19.9568 22.2576 20.2295 23.5497 20.9555 24.4934C19.8221 24.6101 18.7077 25.1906 17.9456 26.1025C17.609 26.5053 17.6251 26.6302 18.0521 26.9271C19.1348 27.6798 20.5371 27.9015 21.7617 27.5524C21.4315 28.6497 21.5943 29.8959 22.2446 30.9093C22.5219 31.3414 22.6496 31.3655 23.0882 31.0681C24.2021 30.3129 24.9157 29.1016 25.0041 27.8754C26.1416 28.4025 27.5729 28.3908 28.7939 27.8147C29.2746 27.5879 29.3159 27.4675 29.0666 27.0194C28.454 25.9185 27.3504 25.147 26.1445 24.926C26.8848 24.0701 27.2679 22.9029 27.1424 21.7445C27.0873 21.2356 26.9838 21.1605 26.459 21.2489C25.3782 21.4308 24.3989 21.9954 23.7332 22.7782ZM15.6735 11.6734C16.8805 12.0002 17.8815 12.8186 18.3901 13.848C19.0558 13.0647 20.0355 12.4997 21.1167 12.3177C21.6415 12.2293 21.745 12.3044 21.8001 12.8133C21.9256 13.9719 21.5424 15.1393 20.8019 15.9952C22.0069 16.2167 23.1095 16.9879 23.7218 18.0882C23.9711 18.5362 23.9298 18.6567 23.4491 18.8835C22.2289 19.4592 20.7987 19.4712 19.6616 18.9452C19.572 20.1702 18.8587 21.3799 17.7459 22.1344C17.3073 22.4317 17.1796 22.4077 16.9023 21.9756C16.2526 20.9631 16.0895 19.7181 16.4186 18.6214C15.1941 18.9701 13.7922 18.7484 12.7098 17.9958C12.2828 17.699 12.2667 17.5741 12.6033 17.1713C13.3652 16.2597 14.479 15.6793 15.612 15.5623C14.886 14.6186 14.6132 13.3264 14.9244 12.1005C15.0514 11.6003 15.1649 11.5356 15.6735 11.6734Z" fill="#C191FC"/>
<path fill-rule="evenodd" clip-rule="evenodd" d="M14.3863 6.75824C14.9281 7.66378 14.5984 8.83624 13.65 9.37701C12.7015 9.91778 11.4934 9.62207 10.9517 8.71653C10.4099 7.81099 10.7395 6.63853 11.6879 6.09777C12.6364 5.557 13.8445 5.85271 14.3863 6.75824ZM25.0337 24.5531C25.5755 25.4586 25.2458 26.6311 24.2974 27.1719C23.3489 27.7126 22.1408 27.4169 21.5991 26.5114C21.0573 25.6059 21.3869 24.4334 22.3353 23.8926C23.2838 23.3519 24.4919 23.6476 25.0337 24.5531ZM18.9551 18.2432C19.9035 17.7024 20.2332 16.5299 19.6914 15.6244C19.1496 14.7189 17.9415 14.4232 16.9931 14.9639C16.0446 15.5047 15.715 16.6771 16.2568 17.5827C16.7986 18.4882 18.0066 18.7839 18.9551 18.2432Z" fill="#7020F6"/>
<path fill-rule="evenodd" clip-rule="evenodd" d="M32.8127 9.8396V34.7439C32.8127 34.7439 28.2144 31.0703 28.2138 22.7422C28.2133 14.4141 32.8127 9.8396 32.8127 9.8396ZM28.3725 38.0856L5.68557 26.695C5.68557 26.695 11.1352 24.3833 18.7221 28.1919C26.309 32.0006 28.3725 38.0856 28.3725 38.0856Z" fill="#96C34A"/>
</svg>
