<svg width="42" height="41" viewBox="0 0 42 41" fill="none" xmlns="http://www.w3.org/2000/svg">
<path d="M22.0894 25.83H19.4644V36.4035C18.4822 34.0242 16.1043 32.3259 13.3219 32.3259H10.605C10.395 32.3259 10.2375 32.4925 10.2375 32.6847V33.2228C10.2375 36.2978 12.7969 38.7963 15.8288 38.8219L19.6088 38.8347C19.6534 38.8347 19.6966 38.8256 19.7361 38.8091H22.0894V38.8006C22.1366 38.8224 22.1898 38.8347 22.2469 38.8347H24.9637C28.5075 38.8347 31.395 36.08 31.5787 32.6719C31.5919 32.4797 31.4344 32.3259 31.2506 32.3259L27.4706 32.3388C24.9521 32.36 22.7596 34.0876 22.0894 36.4346V25.83Z" fill="#86D72F"/>
<path d="M27.3394 24.6769H14.1881V16.9637C14.1881 12.2103 16.1306 7.66187 19.5694 4.31781L19.5825 4.305C20.2125 3.69 21.2362 3.69 21.8662 4.305C25.3706 7.66187 27.3394 12.2616 27.3394 17.0534V24.6769Z" fill="#F70A8D"/>
<path d="M32.34 5.26592C32.34 4.5228 31.8544 3.88217 31.2506 3.86936C26.9587 3.84373 23.2706 9.98092 21.6431 15.99C21.3544 17.0534 20.1731 17.0278 19.8844 15.9644C18.27 9.98092 14.595 3.86936 10.3162 3.86936C9.69937 3.86936 9.20062 4.49717 9.20062 5.26592V13.2225L9.1875 13.2097C9.1875 13.7094 9.21375 14.209 9.25312 14.6959C9.35812 16.1053 9.63375 18.6422 10.0669 19.885C11.7994 25.1253 15.9337 27.6109 20.7769 27.6109C25.2525 27.6109 29.1375 25.6378 31.0537 21.0125C31.8806 19.1419 32.3531 15.8106 32.3531 13.53L32.34 5.26592Z" fill="#FF6DC6"/>
</svg>
