<svg width="42" height="41" viewBox="0 0 42 41" fill="none" xmlns="http://www.w3.org/2000/svg">
<path d="M22.4379 25.4201H19.8129V36.1938C18.884 33.7101 16.4515 31.9161 13.5917 31.9161H10.8748C10.6648 31.9161 10.5073 32.0826 10.5073 32.2748V32.8129C10.5073 35.8879 13.0667 38.3864 16.0985 38.412L19.8785 38.4248C19.9232 38.4248 19.9664 38.4157 20.0059 38.3992H22.379C22.4211 38.4157 22.4674 38.4248 22.5167 38.4248H25.2335C28.7773 38.4248 31.6648 35.6701 31.8485 32.262C31.8617 32.0698 31.7042 31.9161 31.5204 31.9161L27.7404 31.9289C25.3131 31.9494 23.1886 33.5549 22.4379 35.7722V25.4201Z" fill="#86D72F"/>
<path d="M21.0729 2.5625C17.9885 2.5625 15.5735 5.15063 15.8623 8.14875L16.0985 10.5959L13.4998 9.72469C10.586 8.73812 7.44915 10.4166 6.71415 13.3378C5.99227 16.2206 7.92165 19.0906 10.9273 19.5903L13.2635 19.9747L11.3473 22.2809C9.40477 24.6128 9.92977 28.0722 12.5023 29.7506C15.0223 31.4034 18.461 30.6091 19.9704 28.0337L21.1648 26.1759L22.136 28.0337C23.6454 30.6091 27.071 31.4034 29.6041 29.7506C32.1635 28.0722 32.7016 24.6128 30.7591 22.2809L28.8691 20.0003L31.3629 19.5903C34.3554 19.0906 36.2979 16.2206 35.576 13.3378C34.841 10.4166 31.691 8.73812 28.7773 9.72469L26.1523 10.6087L26.336 8.03344C26.5066 5.08656 24.1048 2.5625 21.0729 2.5625Z" fill="#D3D3D3"/>
<path d="M20.9941 22.2426C23.7341 22.2426 25.9554 20.0742 25.9554 17.3994C25.9554 14.7246 23.7341 12.5563 20.9941 12.5563C18.2541 12.5563 16.0329 14.7246 16.0329 17.3994C16.0329 20.0742 18.2541 22.2426 20.9941 22.2426Z" fill="#FFB02E"/>
</svg>
