<svg width="42" height="41" viewBox="0 0 42 41" fill="none" xmlns="http://www.w3.org/2000/svg">
<path d="M34.4264 25.3245C37.6683 24.2995 39.6239 21.2374 39.3614 18.047C39.3351 17.7524 39.0989 17.4961 38.797 17.4449C38.797 17.4449 37.6289 17.2014 37.3664 17.1502C37.2351 17.1245 37.1826 16.958 37.2614 16.8683C37.432 16.6889 38.2458 15.792 38.2458 15.792C38.4558 15.5742 38.4951 15.2283 38.3376 14.972C36.6445 12.243 33.2189 10.8849 29.9639 11.9227C29.032 12.2174 28.2183 12.7555 27.5095 13.4345C27.9558 12.5633 28.2183 11.6536 28.2183 10.6927C28.2183 7.36142 25.8426 4.59392 22.6533 3.86361C22.3514 3.79954 22.0364 3.94048 21.8789 4.19673C21.8789 4.19673 21.2751 5.20892 21.1439 5.43954C21.0783 5.55486 20.8945 5.54204 20.842 5.45236C20.7108 5.23454 20.107 4.19673 20.107 4.19673C19.9495 3.94048 19.6345 3.78673 19.3458 3.86361C16.1695 4.58111 13.7808 7.34861 13.7808 10.6799C13.7808 11.6408 14.0564 12.5505 14.4895 13.4217C13.7808 12.7427 12.9801 12.2174 12.0483 11.9227C8.79326 10.8849 5.36763 12.243 3.67451 14.972C3.51701 15.2283 3.55638 15.5614 3.76638 15.792C3.76638 15.792 4.56701 16.6633 4.75076 16.8555C4.84263 16.9452 4.77701 17.1245 4.65888 17.1502C4.40951 17.2014 3.21513 17.4449 3.21513 17.4449C2.91326 17.5089 2.67701 17.7524 2.65076 18.047C2.37513 21.2245 4.33076 24.2867 7.58576 25.3245C8.53076 25.6192 9.50201 25.6577 10.4995 25.5039C9.60701 25.9524 8.81951 26.5417 8.24201 27.3233C6.23389 30.0139 6.49638 33.6142 8.63576 36.0358C8.83263 36.2664 9.17389 36.3305 9.46264 36.2024C9.46264 36.2024 10.552 35.7283 10.8014 35.613C10.9195 35.5617 11.0639 35.6642 11.0508 35.7795C11.0245 36.023 10.8933 37.2145 10.8933 37.2145C10.867 37.5092 11.0245 37.8167 11.3133 37.932C14.332 39.162 17.9151 38.2908 19.9233 35.6002C20.5008 34.8186 20.8289 33.9345 20.9995 32.9736C21.1701 33.9345 21.4983 34.8314 22.0758 35.6002C24.0839 38.2908 27.667 39.162 30.6858 37.932C30.9745 37.8167 31.132 37.522 31.1058 37.2145C31.1058 37.2145 30.9745 36.0486 30.9483 35.7924C30.9351 35.6642 31.0795 35.5617 31.1976 35.613C31.4339 35.7155 32.5495 36.2024 32.5495 36.2024C32.8251 36.3305 33.1795 36.2664 33.3764 36.0358C35.5158 33.6142 35.7783 30.0139 33.7701 27.3233C33.1926 26.5417 32.4051 25.9652 31.5126 25.5039C32.5101 25.6577 33.4814 25.6192 34.4264 25.3245Z" fill="#FF6DC6"/>
<path d="M21.6689 16.9788C22.0612 16.7572 22.3251 16.3432 22.3251 15.8689C22.3251 15.1613 21.7375 14.5877 21.0126 14.5877C20.2877 14.5877 19.7001 15.1613 19.7001 15.8689C19.7001 16.3432 19.9641 16.7572 20.3564 16.9788V18.6244C19.4303 18.8103 18.6484 19.3816 18.1944 20.1591L16.5872 19.6505C16.4613 19.0711 15.9343 18.6364 15.3032 18.6364C14.5784 18.6364 13.9907 19.2101 13.9907 19.9177C13.9907 20.6253 14.5784 21.1989 15.3032 21.1989C15.6413 21.1989 15.9495 21.0742 16.1822 20.8692L17.7899 21.378C17.7773 21.4917 17.7707 21.6072 17.7707 21.7242C17.7707 22.5446 18.0905 23.292 18.6149 23.8543L17.6197 25.1906C17.5744 25.186 17.5285 25.1836 17.482 25.1836C16.7571 25.1836 16.1695 25.7572 16.1695 26.4649C16.1695 27.1725 16.7571 27.7461 17.482 27.7461C18.2069 27.7461 18.7945 27.1725 18.7945 26.4649C18.7945 26.2793 18.7541 26.103 18.6814 25.9438L19.676 24.6083C20.0836 24.7886 20.5361 24.8889 21.0126 24.8889C21.4871 24.8889 21.9378 24.7894 22.344 24.6106L23.3316 25.9417C23.2584 26.1015 23.2176 26.2785 23.2176 26.4649C23.2176 27.1725 23.8052 27.7461 24.5301 27.7461C25.255 27.7461 25.8426 27.1725 25.8426 26.4649C25.8426 25.7572 25.255 25.1836 24.5301 25.1836C24.4844 25.1836 24.4392 25.1859 24.3947 25.1903L23.4065 23.8584C23.9332 23.2957 24.2545 22.5466 24.2545 21.7242C24.2545 21.6065 24.2479 21.4902 24.2351 21.3758L25.8306 20.8698C26.0632 21.0744 26.3711 21.1989 26.7089 21.1989C27.4337 21.1989 28.0214 20.6253 28.0214 19.9177C28.0214 19.2101 27.4337 18.6364 26.7089 18.6364C26.0775 18.6364 25.5503 19.0716 25.4248 19.6514L23.8298 20.1572C23.3756 19.3807 22.5942 18.8101 21.6689 18.6244V16.9788Z" fill="white"/>
</svg>
