<svg width="42" height="41" viewBox="0 0 42 41" fill="none" xmlns="http://www.w3.org/2000/svg">
<path d="M39.0028 22.8095L35.9578 22.2457C35.7741 22.2073 35.6822 22.0023 35.7741 21.8485L38.609 17.4025C38.7272 17.2104 38.5828 16.9797 38.3597 16.9925L33.0178 17.4666C32.834 17.4794 32.6765 17.3128 32.729 17.1335L33.5691 14.2635C33.6347 14.0328 33.3722 13.8407 33.1622 13.9688L27.4528 17.4922C27.2559 17.6076 27.0065 17.4538 27.0328 17.236L28.7128 5.28189C28.739 5.06407 28.5028 4.89757 28.3059 5.0257L23.9878 7.5882C23.8565 7.66507 23.6728 7.6138 23.6072 7.48568L21.1659 2.70664C21.0609 2.51445 20.7853 2.51445 20.6803 2.70664L18.2391 7.48568C18.1734 7.62662 17.9897 7.6779 17.8584 7.60102L13.3959 5.0257C13.199 4.91039 12.9497 5.0769 12.9891 5.29471L15.1284 17.236C15.1678 17.4538 14.9184 17.6204 14.7216 17.5051L8.67093 13.956C8.46093 13.8279 8.19842 14.02 8.26404 14.2506L9.11717 17.1463C9.16967 17.3257 9.02529 17.505 8.82842 17.4794L3.48654 17.0054C3.26342 16.9797 3.11905 17.2232 3.23718 17.4154L6.07217 21.8613C6.17717 22.015 6.0853 22.2328 5.88842 22.2585L2.84342 22.8222C2.60717 22.8606 2.54155 23.1681 2.75155 23.3091L11.3353 28.8057C11.5584 28.9466 11.6109 29.2285 11.4665 29.4463L8.93342 32.9698C8.8153 33.1363 8.98592 33.3669 9.1828 33.2901L20.1815 29.3694C20.654 29.2029 21.179 29.2029 21.6515 29.3694L32.6503 33.2901C32.8472 33.3669 33.0309 33.1363 32.8997 32.9698L30.3665 29.4463C30.2222 29.2413 30.2747 28.9466 30.4978 28.8057L39.0815 23.3091C39.3047 23.1553 39.2391 22.8479 39.0028 22.8095Z" fill="#FCB646"/>
<path d="M20.9297 14.4428C21.6545 14.4428 22.2422 15.0165 22.2422 15.7241V26.1291L29.3854 22.5415C30.03 22.2177 30.8213 22.4654 31.153 23.0946C31.4846 23.7238 31.2309 24.4963 30.5863 24.8201L22.2422 29.0108V37.121C22.2422 37.8286 21.6545 38.4022 20.9297 38.4022C20.2048 38.4022 19.6172 37.8286 19.6172 37.121V29.0109L11.2729 24.8201C10.6283 24.4963 10.3747 23.7238 10.7063 23.0946C11.0379 22.4654 11.8293 22.2177 12.4738 22.5415L19.6172 26.1291V15.7241C19.6172 15.0165 20.2048 14.4428 20.9297 14.4428Z" fill="#FCB646"/>
</svg>
